<svg xmlns="http://www.w3.org/2000/svg" viewBox="0 0 80 80"><path d="M38.4,72.07c-.79-.11-1.59-.17-2.39-.31a25.36,25.36,0,0,1-19.75-17.3,25,25,0,0,1-1.1-6.07,34.37,34.37,0,0,1,.89-9,58.75,58.75,0,0,1,4.36-12.84,52.58,52.58,0,0,1,4.34-7.8,32.59,32.59,0,0,1,7.14-7.68A14,14,0,0,1,38.55,8.2a12,12,0,0,1,6.1.82,18,18,0,0,1,5.77,3.83,39,39,0,0,1,7.45,9.88,61.94,61.94,0,0,1,6.07,15.81A40.93,40.93,0,0,1,65,46a.85.85,0,0,0,0,.22V48a1.45,1.45,0,0,0,0,.29,21.89,21.89,0,0,1-.57,4.19,25.32,25.32,0,0,1-20.39,19.3c-.76.13-1.52.19-2.29.3Z" fill="#fff"/></svg>